HIERARCHY
ROOT Hips
{
  OFFSET 0 0 0
  CHANNELS 6 Xposition Yposition Zposition Zrotation Yrotation Xrotation
  JOINT LeftThigh
  {
    OFFSET 8.409438 0 -5.917753
    CHANNELS 3 Zrotation Yrotation Xrotation
    JOINT LeftLeg
    {
      OFFSET 0 0 -42.358652
      CHANNELS 3 Zrotation Yrotation Xrotation
      JOINT LeftFoot
      {
        OFFSET 0 0 -39.357303
        CHANNELS 3 Zrotation Yrotation Xrotation
      }
    }
  }
  JOINT RightThigh
  {
    OFFSET -8.409438 0 -5.917753
    CHANNELS 3 Zrotation Yrotation Xrotation
    JOINT RightLeg
    {
      OFFSET 0 0 -42.358652
      CHANNELS 3 Zrotation Yrotation Xrotation
      JOINT RightFoot
      {
        OFFSET 0 0 -39.357303
        CHANNELS 3 Zrotation Yrotation Xrotation
      }
    }
  }
  JOINT SpineLow
  {
    OFFSET 0 0 4.719101
    CHANNELS 3 Zrotation Yrotation Xrotation
    JOINT SpineMid
    {
      OFFSET 0 0 12.899191
      CHANNELS 3 Zrotation Yrotation Xrotation
      JOINT Chest
      {
        OFFSET 0 0 12.899191
        CHANNELS 3 Zrotation Yrotation Xrotation
        JOINT LeftShoulder
        {
          OFFSET 7.550562 1.41573 9.438202
          CHANNELS 3 Zrotation Yrotation Xrotation
          JOINT LeftArm
          {
            OFFSET 9.155056 0 4.247191
            CHANNELS 3 Zrotation Yrotation Xrotation
            JOINT LeftForearm
            {
              OFFSET 0 0 25.771955
              CHANNELS 3 Zrotation Yrotation Xrotation
              JOINT LeftHand
              {
                OFFSET 0 0 25.197169
                CHANNELS 3 Zrotation Yrotation Xrotation
              }
            }
          }
        }
        JOINT RightShoulder
        {
          OFFSET -7.550562 1.41573 9.438202
          CHANNELS 3 Zrotation Yrotation Xrotation
          JOINT RightArm
          {
            OFFSET -9.155056 0 4.247191
            CHANNELS 3 Zrotation Yrotation Xrotation
            JOINT RightForearm
            {
              OFFSET 0 0 -25.771955
              CHANNELS 3 Zrotation Yrotation Xrotation
              JOINT RightHand
              {
                OFFSET 0 0 -25.197169
                CHANNELS 3 Zrotation Yrotation Xrotation
              }
            }
          }
        }
        JOINT Neck
        {
          OFFSET 0 0 15.101124
          CHANNELS 3 Zrotation Yrotation Xrotation
          JOINT Head
          {
            OFFSET 0 0 11.325843
            CHANNELS 3 Zrotation Yrotation Xrotation
            End Site
            {
              OFFSET 0 0 14.157303
            }
          }
        }
      }
    }
  }
}
MOTION
Frames: 7
Frame Time: 0.0
0.0  93.25843  0.0  -3.020362  2.119375  -86.523457  16.963399  -23.78287  -18.916842  -3.877895  6.674741  27.200539  6.634565  1.136022  4.771311  -27.614787  -6.5002  -24.386548  -8.680292  21.610407  34.113982  15.098312  8.946584  -0.21944  6.114345  0.253819  -0.527004  16.707284  0.821304  -1.366134  16.707284  0.821304  -1.366134  11.571139  17.359287  8.643245  168.049472  17.34606  174.905284  -11.052747  35.445351  98.828293  67.080375  -54.536337  -25.796574  16.455783  2.699511  14.55169  -179.293584  54.705294  157.206181  -34.183565  1.058736  -134.733491  90.200401  22.858735  5.373306  -29.259645  -4.127218  3.871616  -21.910179  -3.290016  2.711693  
0.0  93.25843  0.0  -2.997453  1.00766  -86.787038  16.827634  -23.862558  -18.038026  -3.658653  6.665787  27.019082  6.72265  1.192742  4.744135  -27.31564  -6.48309  -24.154195  -8.258021  21.502882  33.780857  15.09177  8.894913  -0.197193  6.106967  0.19992  -0.473525  16.688638  0.661475  -1.23465  16.688637  0.661475  -1.23465  11.387325  17.497524  8.756143  168.108685  17.417959  174.966426  -10.950893  35.160035  98.854919  66.89894  -53.969354  -25.721991  16.151546  2.570807  14.716154  -179.579919  55.795379  156.887176  -34.532674  1.189582  -134.548068  89.728856  22.971343  5.738946  -28.991884  -4.221265  3.61527  -21.710034  -3.346645  2.516131  
0.0  93.25843  0.0  -2.978128  -0.094663  -87.096064  16.738882  -23.921123  -17.01422  -3.36226  6.578191  26.737974  6.648161  1.343163  4.677574  -26.838826  -6.310368  -23.860799  -7.734716  21.291184  33.528782  15.044327  8.812112  -0.2136  6.084554  0.143735  -0.414811  16.628769  0.493916  -1.089633  16.628769  0.493916  -1.089633  11.126637  17.607705  8.843805  168.26386  17.432217  175.094817  -10.763434  34.653108  98.933469  66.915074  -53.072363  -26.030221  15.77942  2.406173  14.901477  -179.731613  57.181556  156.675297  -34.959254  1.346463  -134.300452  89.115024  23.061702  6.19645  -28.734205  -4.298612  3.27657  -21.518245  -3.387111  2.259514  
0.0  93.25843  0.0  -3.006816  -1.232239  -87.469265  16.545668  -23.984972  -15.979424  -2.983845  6.438089  26.424358  6.689156  1.355349  4.609118  -26.129337  -6.062343  -23.470991  -7.719556  21.075291  33.056375  15.094735  8.680134  -0.192197  6.057848  0.074509  -0.353235  16.557121  0.29028  -0.940011  16.557121  0.29028  -0.940011  10.788839  17.723053  8.944216  168.440041  17.381122  175.32257  -10.58998  33.771552  99.172648  66.996359  -51.651714  -26.604501  15.344421  2.204882  15.122175  -179.868661  58.884654  156.473697  -35.480273  1.563546  -133.968884  88.365389  23.067049  6.745577  -28.495139  -4.330073  2.907157  -21.34116  -3.392026  1.981965  
0.0  93.25843  0.0  -3.011813  -2.420293  -87.870214  16.567951  -23.966945  -14.81567  -2.661201  6.238496  25.924871  6.720463  1.37832  4.580212  -25.031448  -5.703521  -22.957817  -6.859138  20.621506  32.959671  14.456809  8.28426  -0.328163  6.018939  0.005219  -0.290352  16.451839  0.086108  -0.786718  16.451838  0.086108  -0.786718  10.502556  17.802867  9.070054  168.585678  17.308604  175.620784  -10.293501  32.646716  99.465695  67.178868  -49.879156  -27.220432  14.894763  1.990816  15.369825  179.882964  60.913929  156.115901  -36.065076  1.835022  -133.537367  87.529515  22.958179  7.295668  -28.163948  -4.327958  2.581579  -21.095075  -3.373579  1.739624  
0.0  93.25843  0.0  -3.024367  -3.59813  -88.259681  16.620076  -23.87472  -13.676012  -2.291072  5.901967  25.374472  6.702622  1.335535  4.509927  -24.105537  -5.340883  -22.504201  -6.995743  20.253163  32.348847  14.467489  8.120313  -0.293116  5.953572  -0.068177  -0.238275  16.274004  -0.126653  -0.663485  16.274004  -0.126653  -0.663485  10.295281  17.879376  9.208656  168.727182  17.259458  175.960589  -10.035331  31.185159  99.821631  67.418044  -47.362787  -27.73047  14.434921  1.770842  15.683027  179.46288  63.246606  155.493589  -36.699722  2.159141  -132.961512  86.640472  22.756148  7.65614  -27.805732  -4.239371  2.301346  -20.829163  -3.292438  1.535573  
0.0  93.25843  0.0  -2.98022  -4.771565  -88.679087  16.79053  -23.665181  -12.457774  -1.951715  5.460745  24.729164  6.62926  1.240626  4.440701  -23.071686  -4.884184  -21.935563  -7.116329  19.806443  31.641824  14.808829  8.036918  -0.171966  5.862475  -0.127992  -0.182154  16.025456  -0.303521  -0.525444  16.025456  -0.303521  -0.525444  10.135697  17.924549  9.290992  168.927412  17.300571  176.348629  -9.593681  29.475496  100.229066  68.057514  -44.010723  -28.335438  14.000962  1.506578  15.945644  178.627493  65.855458  154.369493  -37.356786  2.540133  -132.25063  85.738467  22.413334  7.818089  -27.305592  -4.23436  2.121847  -20.45545  -3.278436  1.404277  
